<?xml version="1.0" encoding="UTF-8" standalone="no"?>
<svg
   xmlns:dc="http://purl.org/dc/elements/1.1/"
   xmlns:cc="http://creativecommons.org/ns#"
   xmlns:rdf="http://www.w3.org/1999/02/22-rdf-syntax-ns#"
   xmlns:svg="http://www.w3.org/2000/svg"
   xmlns="http://www.w3.org/2000/svg"
   version="1.1"
   id="Capa_1"
   x="0px"
   y="0px"
   viewBox="0 0 512 512"
   style="enable-background:new 0 0 512 512;"
   xml:space="preserve"
   width="512px"
   height="512px"><metadata
     id="metadata3451"><rdf:RDF><cc:Work
         rdf:about=""><dc:format>image/svg+xml</dc:format><dc:type
           rdf:resource="http://purl.org/dc/dcmitype/StillImage" /><dc:title></dc:title></cc:Work></rdf:RDF></metadata><defs
     id="defs3449" /><g
     style="fill:#ffffff"
     id="g3405"
     transform="matrix(0.34269068,0,0,0.34269068,168.27119,168.27119)"><g
       style="fill:#ffffff"
       id="g3407"><path
         d="M 437.02,74.98 C 388.667,26.629 324.38,0 256,0 187.62,0 123.333,26.629 74.98,74.98 26.629,123.333 0,187.62 0,256 0,324.38 26.629,388.667 74.98,437.02 123.333,485.371 187.62,512 256,512 324.38,512 388.667,485.371 437.02,437.02 485.371,388.667 512,324.38 512,256 512,187.62 485.371,123.333 437.02,74.98 Z M 256,482 C 131.383,482 30,380.617 30,256 30,131.383 131.383,30 256,30 380.617,30 482,131.383 482,256 482,380.617 380.617,482 256,482 Z"
         id="path3409"
         style="fill:#ffffff" /></g></g><g
     id="g3417" /><g
     id="g3419" /><g
     id="g3421" /><g
     id="g3423" /><g
     id="g3425" /><g
     id="g3427" /><g
     id="g3429" /><g
     id="g3431" /><g
     id="g3433" /><g
     id="g3435" /><g
     id="g3437" /><g
     id="g3439" /><g
     id="g3441" /><g
     id="g3443" /><g
     id="g3445" /><g
     transform="matrix(0.16908225,0,0,0.16908225,218.12317,214.82172)"
     id="g4532"
     style="fill:#ffffff"><path
       id="path4534"
       d="m 395.655,249.236 c -11.037,-14.272 -27.692,-24.075 -49.964,-29.403 28.362,-14.467 40.826,-39.021 37.404,-73.666 -1.144,-12.563 -4.616,-23.451 -10.424,-32.68 -5.812,-9.231 -13.655,-16.652 -23.559,-22.266 -9.896,-5.621 -20.659,-9.9 -32.264,-12.85 -11.608,-2.95 -24.935,-5.092 -39.972,-6.423 l 0,-71.948 -43.964,0 0,69.949 c -7.613,0 -19.223,0.19 -34.829,0.571 l 0,-70.52 -43.97,0 0,71.948 c -6.283,0.191 -15.513,0.288 -27.694,0.288 l -60.526,-0.288 0,46.824 31.689,0 c 14.466,0 22.936,6.473 25.41,19.414 l 0,81.942 c 1.906,0 3.427,0.098 4.57,0.288 l -4.57,0 0,114.769 c -1.521,9.705 -7.04,14.562 -16.558,14.562 l -31.687,0 -8.852,52.249 57.102,0 c 3.617,0 8.848,0.048 15.703,0.134 6.851,0.096 11.988,0.144 15.415,0.144 l 0,72.803 43.977,0 0,-71.947 c 7.992,0.195 19.602,0.288 34.829,0.288 l 0,71.659 43.965,0 0,-72.803 c 15.611,-0.76 29.457,-2.18 41.538,-4.281 12.087,-2.101 23.653,-5.379 34.69,-9.855 11.036,-4.47 20.266,-10.041 27.688,-16.703 7.426,-6.656 13.559,-15.13 18.421,-25.41 4.846,-10.28 7.943,-22.176 9.271,-35.693 2.485,-26.45 -1.8,-46.818 -12.839,-61.096 z M 198.938,121.904 c 1.333,0 5.092,-0.048 11.278,-0.144 6.189,-0.098 11.326,-0.192 15.418,-0.288 4.093,-0.094 9.613,0.144 16.563,0.715 6.947,0.571 12.799,1.334 17.556,2.284 4.757,0.95 9.996,2.521 15.701,4.71 5.715,2.187 10.28,4.853 13.702,7.993 3.429,3.14 6.331,7.139 8.706,11.993 2.382,4.853 3.572,10.42 3.572,16.7 0,5.33 -0.855,10.185 -2.566,14.565 -1.708,4.377 -4.284,8.042 -7.706,10.992 -3.423,2.951 -6.951,5.523 -10.568,7.71 -3.613,2.187 -8.233,3.949 -13.846,5.28 -5.612,1.333 -10.513,2.38 -14.698,3.14 -4.188,0.762 -9.421,1.287 -15.703,1.571 -6.283,0.284 -11.043,0.478 -14.277,0.572 -3.237,0.094 -7.661,0.094 -13.278,0 -5.618,-0.094 -8.897,-0.144 -9.851,-0.144 l 0,-87.65 -0.003,0 z m 120.06,194.427 c -1.813,4.38 -4.141,8.189 -6.994,11.427 -2.858,3.23 -6.619,6.088 -11.28,8.559 -4.66,2.478 -9.185,4.473 -13.559,5.996 -4.38,1.529 -9.664,2.854 -15.844,4 -6.194,1.143 -11.615,1.947 -16.283,2.426 -4.661,0.477 -10.226,0.856 -16.7,1.144 -6.469,0.28 -11.516,0.425 -15.131,0.425 -3.617,0 -8.186,-0.052 -13.706,-0.145 -5.523,-0.089 -9.041,-0.137 -10.565,-0.137 l 0,-96.505 c 1.521,0 6.042,-0.093 13.562,-0.287 7.521,-0.192 13.656,-0.281 18.415,-0.281 4.758,0 11.327,0.281 19.705,0.856 8.37,0.567 15.413,1.42 21.128,2.562 5.708,1.144 11.937,2.902 18.699,5.284 6.755,2.378 12.23,5.28 16.419,8.706 4.188,3.432 7.707,7.803 10.561,13.134 2.861,5.328 4.288,11.42 4.288,18.274 -0.001,5.335 -0.904,10.181 -2.715,14.562 z M 627.5871,243.53996 A 403.57287,398.98681 0 0 1 224.01422,642.52682 403.57287,398.98681 0 0 1 -179.55865,243.53996 403.57287,398.98681 0 0 1 224.01422,-155.4469 403.57287,398.98681 0 0 1 627.5871,243.53996 Z"
       style="fill:#ffffff" /></g></svg>