<?xml version="1.0" encoding="UTF-8" standalone="no"?>
<svg
   xmlns:dc="http://purl.org/dc/elements/1.1/"
   xmlns:cc="http://creativecommons.org/ns#"
   xmlns:rdf="http://www.w3.org/1999/02/22-rdf-syntax-ns#"
   xmlns:svg="http://www.w3.org/2000/svg"
   xmlns="http://www.w3.org/2000/svg"
   height="512px"
   width="512px"
   xml:space="preserve"
   style="enable-background:new 0 0 512 512;"
   viewBox="0 0 512 512"
   y="0px"
   x="0px"
   id="Capa_1"
   version="1.1"><metadata
     id="metadata3451"><rdf:RDF><cc:Work
         rdf:about=""><dc:format>image/svg+xml</dc:format><dc:type
           rdf:resource="http://purl.org/dc/dcmitype/StillImage" /><dc:title></dc:title></cc:Work></rdf:RDF></metadata><defs
     id="defs3449" /><g
     style="fill:#ffffff"
     transform="matrix(0.15625,0,0,0.15625,216,216)"
     id="g3405"><g
       style="fill:#ffffff"
       id="g3407"><path
         style="fill:#ffffff"
         id="path3409"
         d="M 437.02,74.98 C 388.667,26.629 324.38,0 256,0 187.62,0 123.333,26.629 74.98,74.98 26.629,123.333 0,187.62 0,256 0,324.38 26.629,388.667 74.98,437.02 123.333,485.371 187.62,512 256,512 324.38,512 388.667,485.371 437.02,437.02 485.371,388.667 512,324.38 512,256 512,187.62 485.371,123.333 437.02,74.98 Z M 256,482 C 131.383,482 30,380.617 30,256 30,131.383 131.383,30 256,30 380.617,30 482,131.383 482,256 482,380.617 380.617,482 256,482 Z" /></g></g><g
     id="g3417" /><g
     id="g3419" /><g
     id="g3421" /><g
     id="g3423" /><g
     id="g3425" /><g
     id="g3427" /><g
     id="g3429" /><g
     id="g3431" /><g
     id="g3433" /><g
     id="g3435" /><g
     id="g3437" /><g
     id="g3439" /><g
     id="g3441" /><g
     id="g3443" /><g
     id="g3445" /><g
     style="fill:#ffffff"
     transform="matrix(0.15280631,0,0,0.15280631,268.54397,229.48072)"
     id="g5013"><path
       style="fill:#ffffff"
       d="m -105.70373,194.3818 16.783,-34.133 c 1.301,-2.645 1.145,-5.774 -0.413,-8.277 -1.558,-2.502 -4.297,-4.023 -7.245,-4.023 l -83.926,0 c -3.252,0.001 -6.222,1.849 -7.658,4.767 l -16.788,34.133 c -1.301,2.645 -1.145,5.774 0.414,8.277 1.558,2.502 4.297,4.023 7.245,4.023 l 83.929,0 c 3.252,-0.001 6.222,-1.85 7.659,-4.767 z m -77.88,-12.301 8.392,-17.067 64.908,0 -8.392,17.067 -64.908,0 z m 216.904,-70.795 c -9.223,-14.367004 -25.119,-23.059004 -42.192,-23.071004 l -104.491,0 c -3.252,10e-4 -6.222,1.849 -7.658,4.767 l -16.788,34.133004 c -1.301,2.645 -1.145,5.774 0.414,8.277 1.559,2.503 4.297,4.023 7.245,4.023 l 121.137,0.046 -28.629,68.221 -126.079,0 c -3.252,10e-4 -6.222,1.849 -7.658,4.767 l -16.783,34.133 c -1.301,2.645 -1.145,5.774 0.414,8.277 1.558,2.502 4.297,4.023 7.245,4.023 l 142.863,0 c 20.327,-0.051 38.634,-12.306 46.429,-31.079 l 28.775,-68.262 c 6.679,-15.793 5.089,-33.871 -4.244,-48.255 z m -11.483,41.625 -28.775,68.267 c -5.14,12.439 -17.245,20.576 -30.704,20.638 l -129.158,0 8.392,-17.067 120.767,0 c 6.813,-0.011 12.954,-4.109 15.579,-10.396 l 28.779,-68.279 c 2.241,-5.235 1.707,-11.245 -1.421,-16.004 -3.074,-4.846 -8.429,-7.764 -14.167,-7.721 l -107.571,0 8.392,-17.067 99.18,0 c 11.288,0.023 21.79,5.784 27.875,15.292 6.25,9.641 7.311,21.755 2.832,32.337 z m 99.68081,20.63753 A 203.60874,201.295 0 0 1 -82.090655,374.84329 203.60874,201.295 0 0 1 -285.69939,173.54833 203.60874,201.295 0 0 1 -82.090655,-27.746694 203.60874,201.295 0 0 1 121.51808,173.54833 Z"
       id="path4885" /></g></svg>