<?xml version="1.0" encoding="UTF-8" standalone="no"?>
<svg
   xmlns:dc="http://purl.org/dc/elements/1.1/"
   xmlns:cc="http://creativecommons.org/ns#"
   xmlns:rdf="http://www.w3.org/1999/02/22-rdf-syntax-ns#"
   xmlns:svg="http://www.w3.org/2000/svg"
   xmlns="http://www.w3.org/2000/svg"
   version="1.1"
   id="Capa_1"
   x="0px"
   y="0px"
   viewBox="0 0 512 512"
   style="enable-background:new 0 0 512 512;"
   xml:space="preserve"
   width="512px"
   height="512px"><metadata
     id="metadata3451"><rdf:RDF><cc:Work
         rdf:about=""><dc:format>image/svg+xml</dc:format><dc:type
           rdf:resource="http://purl.org/dc/dcmitype/StillImage" /><dc:title></dc:title></cc:Work></rdf:RDF></metadata><defs
     id="defs3449" /><g
     id="g3417" /><g
     id="g3419" /><g
     id="g3421" /><g
     id="g3423" /><g
     id="g3425" /><g
     id="g3427" /><g
     id="g3429" /><g
     id="g3431" /><g
     id="g3433" /><g
     id="g3435" /><g
     id="g3437" /><g
     id="g3439" /><g
     id="g3441" /><g
     id="g3443" /><g
     id="g3445" /><path
     style="fill:#ffffff"
     d="m 294.48127,244.74557 c -0.10742,-0.4226 -0.27837,-0.82604 -0.50707,-1.19682 l -0.007,-0.0141 -34.34308,-54.22487 c -0.0579,-0.0916 -0.16744,-0.1211 -0.23202,-0.20605 -0.76718,-1.11985 -2.03692,-1.78943 -3.39421,-1.78943 -1.35728,0 -2.62702,0.66958 -3.39419,1.78943 -0.0646,0.0849 -0.17411,0.11479 -0.23203,0.20605 l -34.34304,54.22487 -0.007,0.0141 c -0.22888,0.37078 -0.39993,0.77422 -0.5071,1.19682 -0.0506,0.3622 -0.10215,0.72393 -0.1534,1.08612 0,0.0671 0.0246,0.12813 0.0281,0.19482 0.0431,0.43008 0.13058,0.85472 0.26186,1.26668 0.0583,0.15552 0.12567,0.30751 0.2022,0.45532 0.12636,0.24888 0.27731,0.48446 0.44976,0.70378 0.0614,0.079 0.0916,0.17341 0.15972,0.24923 0.0421,0.0474 0.10004,0.0709 0.14392,0.11585 0.20816,0.20535 0.43717,0.38886 0.68317,0.54784 0.1183,0.0902 0.24151,0.17341 0.36823,0.25099 0.0351,0.0176 0.0614,0.0488 0.0976,0.0671 l 34.34306,16.94692 c 1.19733,0.58955 2.60085,0.58955 3.7982,0 L 292.24,249.6833 c 0.44019,-0.22746 0.8366,-0.52973 1.17264,-0.89347 0.0358,-0.0369 0.0867,-0.0491 0.12076,-0.0874 0.0677,-0.0755 0.0976,-0.17059 0.15972,-0.24922 0.17305,-0.2194 0.3233,-0.45476 0.44974,-0.70381 0.0765,-0.14744 0.14392,-0.29943 0.20219,-0.45525 0.13058,-0.41204 0.21834,-0.83661 0.26187,-1.26676 0.002,-0.0664 0.0281,-0.12777 0.0281,-0.19482 -0.0141,-0.22045 -0.0446,-0.43917 -0.0927,-0.65449 -0.0141,-0.14533 -0.0351,-0.2896 -0.0611,-0.43212 z m -34.18961,-38.33693 18.24884,28.81231 -18.24884,-9.00395 0,-19.80836 z m -8.58588,0 0,19.80836 -18.24887,9.00395 18.24887,-28.81231 z m 4.29319,51.58275 -24.64086,-12.15921 24.64086,-12.15818 24.64086,12.15818 -24.64086,12.15921 z m 32.44345,4.32639 0,0 -32.44345,16.00766 -32.44397,-16.00816 c -1.72552,-0.85068 -3.80571,-0.44974 -5.09156,0.98099 -1.28586,1.43072 -1.46291,3.54208 -0.43366,5.16703 l 34.34306,54.22486 c 0.78729,1.2426 2.15567,1.99517 3.62613,1.99517 1.47095,0 2.83932,-0.75309 3.62612,-1.99517 l 34.34304,-54.22486 c 1.02929,-1.62495 0.8517,-3.73631 -0.43362,-5.16703 -1.28635,-1.43023 -3.36654,-1.83118 -5.09209,-0.98049 z m -36.73664,43.27305 -18.24887,-28.8123 18.24887,9.00395 0,19.80835 z m 8.58588,0 0,-19.80835 18.24884,-9.00395 -18.24884,28.8123 z M 365.21439,256 A 109.21441,107.97333 0 0 1 255.99999,363.97334 109.21441,107.97333 0 0 1 146.78562,256 109.21441,107.97333 0 0 1 255.99999,148.02666 109.21441,107.97333 0 0 1 365.21439,256 Z"
     id="path7174" /></svg>