<?xml version="1.0" encoding="UTF-8" standalone="no"?>
<svg
   xmlns:dc="http://purl.org/dc/elements/1.1/"
   xmlns:cc="http://creativecommons.org/ns#"
   xmlns:rdf="http://www.w3.org/1999/02/22-rdf-syntax-ns#"
   xmlns:svg="http://www.w3.org/2000/svg"
   xmlns="http://www.w3.org/2000/svg"
   height="512px"
   width="512px"
   xml:space="preserve"
   style="enable-background:new 0 0 512 512;"
   viewBox="0 0 512 512"
   y="0px"
   x="0px"
   id="Capa_1"
   version="1.1"><metadata
     id="metadata3451"><rdf:RDF><cc:Work
         rdf:about=""><dc:format>image/svg+xml</dc:format><dc:type
           rdf:resource="http://purl.org/dc/dcmitype/StillImage" /><dc:title></dc:title></cc:Work></rdf:RDF></metadata><defs
     id="defs3449" /><g
     style="fill:#ffffff"
     transform="matrix(0.15625,0,0,0.15625,216,216)"
     id="g3405"><g
       style="fill:#ffffff"
       id="g3407"><path
         style="fill:#ffffff"
         id="path3409"
         d="M 437.02,74.98 C 388.667,26.629 324.38,0 256,0 187.62,0 123.333,26.629 74.98,74.98 26.629,123.333 0,187.62 0,256 0,324.38 26.629,388.667 74.98,437.02 123.333,485.371 187.62,512 256,512 324.38,512 388.667,485.371 437.02,437.02 485.371,388.667 512,324.38 512,256 512,187.62 485.371,123.333 437.02,74.98 Z M 256,482 C 131.383,482 30,380.617 30,256 30,131.383 131.383,30 256,30 380.617,30 482,131.383 482,256 482,380.617 380.617,482 256,482 Z" /></g></g><g
     id="g3417" /><g
     id="g3419" /><g
     id="g3421" /><g
     id="g3423" /><g
     id="g3425" /><g
     id="g3427" /><g
     id="g3429" /><g
     id="g3431" /><g
     id="g3433" /><g
     id="g3435" /><g
     id="g3437" /><g
     id="g3439" /><g
     id="g3441" /><g
     id="g3443" /><g
     id="g3445" /><path
     style="fill:#ffffff"
     d="m 269.09405,262.8586 -12.13423,0 0.97664,-4.048 5.15134,-0.96144 c 0.59025,-0.11004 1.01829,-0.62532 1.01815,-1.2258 l 0,-4.98811 c 0,-0.37134 -0.16544,-0.72323 -0.45128,-0.96012 -0.28584,-0.23704 -0.66229,-0.33436 -1.0272,-0.26554 l -2.80715,0.52917 2.15669,-8.98863 c 0.0888,-0.37147 0.003,-0.76312 -0.23367,-1.063 -0.23645,-0.29987 -0.59727,-0.47494 -0.97927,-0.47509 l -8.72923,0 c -0.56744,0 -1.06343,0.38317 -1.2068,0.93221 l -3.09329,11.8554 -5.05884,0.95106 c -0.58952,0.11092 -1.01667,0.62576 -1.01682,1.22565 l 0,4.98812 c 0,0.37089 0.16499,0.7225 0.45025,0.95939 0.28526,0.23689 0.66127,0.3345 1.02574,0.26641 l 2.533,-0.47378 -2.32242,8.90956 c -0.0972,0.37367 -0.0158,0.77146 0.22023,1.07703 0.23616,0.30557 0.60034,0.48459 0.98657,0.48488 l 22.44671,0 c 0.53589,0 1.01185,-0.3421 1.18254,-0.85007 l 2.0946,-6.23525 c 0.12742,-0.38056 0.0641,-0.79908 -0.17026,-1.12483 -0.23411,-0.32588 -0.61085,-0.51907 -1.012,-0.51921 z m -2.99099,6.2351 -19.9368,0 2.41127,-9.24991 c 0.10784,-0.41314 -0.003,-0.85271 -0.29432,-1.16501 -0.29111,-0.3123 -0.72177,-0.45405 -1.14149,-0.37543 l -2.9885,0.55898 0,-2.45146 4.81888,-0.90605 c 0.47437,-0.089 0.8549,-0.44382 0.97664,-0.91087 l 3.04944,-11.68793 6.1841,0 -2.23707,9.32357 c -0.0986,0.41138 0.018,0.84482 0.30966,1.15112 0.2917,0.30645 0.71886,0.44397 1.13461,0.36564 l 3.22234,-0.60706 0,2.44839 -4.92966,0.92008 c -0.49496,0.0961 -0.88471,0.47874 -0.99008,0.97181 l -1.52713,6.33389 c -0.0901,0.37149 -0.005,0.76386 0.23177,1.06417 0.23645,0.30032 0.5977,0.47554 0.98,0.4751 l 11.98327,0 -1.25693,3.74097 z M 287.1127,256 A 31.1127,30.759146 0 0 1 256,286.75915 31.1127,30.759146 0 0 1 224.8873,256 31.1127,30.759146 0 0 1 256,225.24085 31.1127,30.759146 0 0 1 287.1127,256 Z"
     id="path5302" /></svg>