<?xml version="1.0" encoding="UTF-8" standalone="no"?>
<svg
   xmlns:dc="http://purl.org/dc/elements/1.1/"
   xmlns:cc="http://creativecommons.org/ns#"
   xmlns:rdf="http://www.w3.org/1999/02/22-rdf-syntax-ns#"
   xmlns:svg="http://www.w3.org/2000/svg"
   xmlns="http://www.w3.org/2000/svg"
   height="512px"
   width="512px"
   xml:space="preserve"
   style="enable-background:new 0 0 512 512;"
   viewBox="0 0 512 512"
   y="0px"
   x="0px"
   id="Capa_1"
   version="1.1"><metadata
     id="metadata3451"><rdf:RDF><cc:Work
         rdf:about=""><dc:format>image/svg+xml</dc:format><dc:type
           rdf:resource="http://purl.org/dc/dcmitype/StillImage" /><dc:title></dc:title></cc:Work></rdf:RDF></metadata><defs
     id="defs3449" /><g
     style="fill:#ffffff"
     transform="matrix(0.15625,0,0,0.15625,216,216)"
     id="g3405"><g
       style="fill:#ffffff"
       id="g3407"><path
         style="fill:#ffffff"
         id="path3409"
         d="M 437.02,74.98 C 388.667,26.629 324.38,0 256,0 187.62,0 123.333,26.629 74.98,74.98 26.629,123.333 0,187.62 0,256 0,324.38 26.629,388.667 74.98,437.02 123.333,485.371 187.62,512 256,512 324.38,512 388.667,485.371 437.02,437.02 485.371,388.667 512,324.38 512,256 512,187.62 485.371,123.333 437.02,74.98 Z M 256,482 C 131.383,482 30,380.617 30,256 30,131.383 131.383,30 256,30 380.617,30 482,131.383 482,256 482,380.617 380.617,482 256,482 Z" /></g></g><g
     id="g3417" /><g
     id="g3419" /><g
     id="g3421" /><g
     id="g3423" /><g
     id="g3425" /><g
     id="g3427" /><g
     id="g3429" /><g
     id="g3431" /><g
     id="g3433" /><g
     id="g3435" /><g
     id="g3437" /><g
     id="g3439" /><g
     id="g3441" /><g
     id="g3443" /><g
     id="g3445" /><path
     style="fill:#ffffff"
     d="m 273.29998,268.40668 c 0.99589,-1.38394 1.82166,-2.88271 2.45946,-4.4641 0.0193,-0.0433 0.0357,-0.0879 0.0489,-0.13342 3.51513,-8.88675 0.68161,-19.02689 -6.93129,-24.80402 -7.61278,-5.77714 -18.14145,-5.77714 -25.75423,0 -7.61277,5.77726 -10.4463,15.91739 -6.93116,24.80414 0.0132,0.0456 0.0296,0.0901 0.0489,0.13343 0.6378,1.58126 1.46357,3.08003 2.45946,4.46409 0.0223,0.0337 0.0466,0.0661 0.0726,0.0972 3.98955,5.54024 10.40012,8.82371 17.22732,8.82371 6.82719,0 13.23776,-3.28347 17.22731,-8.82371 0.026,-0.0311 0.0503,-0.0635 0.0726,-0.0974 z m -35.35291,-5.9902 c -2.0995,-5.86463 -1.21007,-12.38441 2.38332,-17.47257 3.59352,-5.08817 9.44043,-8.10666 15.66951,-8.08932 6.22909,-0.0173 12.07612,3.00115 15.66952,8.08932 3.59339,5.08816 4.48281,11.60794 2.38332,17.47257 l -5.27202,0 0,-18.10638 c 1.3e-4,-0.4502 -0.28295,-0.85185 -0.70694,-1.00325 -0.424,-0.1514 -0.89742,-0.0197 -1.18249,0.32876 l -10.89151,13.30728 -10.89151,-13.30728 c -0.28508,-0.34848 -0.7585,-0.48016 -1.18249,-0.32876 -0.42399,0.1514 -0.70707,0.55305 -0.70695,1.00325 l 0,18.10638 -5.27176,0 z m 18.05283,12.78095 c -5.44313,-0.003 -10.6264,-2.32791 -14.249,-6.39048 l 6.7935,0 c 0.58824,0 1.06503,-0.47691 1.06503,-1.06503 l 0,-8.51019 5.5662,6.79874 c 0.20919,0.23565 0.50924,0.37057 0.82427,0.37057 0.31516,0 0.61509,-0.13492 0.82427,-0.37057 l 5.56621,-6.79874 0,8.51019 c 0,0.58825 0.47678,1.06503 1.06503,1.06503 l 6.7935,0 c -3.6226,4.06257 -8.80587,6.38711 -14.24901,6.39048 z m 15.92975,-8.52067 -7.40908,0 0,-10.42708 c 1.3e-4,-0.45021 -0.28282,-0.85186 -0.70669,-1.00326 -0.424,-0.15189 -0.89779,-0.0202 -1.18261,0.32864 l -6.63124,8.09942 -6.63124,-8.09942 c -0.28507,-0.34848 -0.7585,-0.48016 -1.18249,-0.32876 -0.42399,0.1514 -0.70707,0.55305 -0.70694,1.00325 l 0,10.42708 -7.40908,0 c -0.45133,-0.68336 -0.85835,-1.39479 -1.21881,-2.1302 l 5.43265,0 c 0.58825,0 1.06504,-0.47679 1.06504,-1.06503 l 0,-16.18837 9.82647,12.0061 c 0.20919,0.23565 0.50924,0.37057 0.82427,0.37057 0.31516,0 0.61509,-0.13492 0.82427,-0.37057 l 9.82648,-12.0061 0,16.18837 c 0,0.58824 0.47691,1.06503 1.06503,1.06503 l 5.43266,0 c -0.36034,0.73553 -0.76736,1.4471 -1.21869,2.13033 z M 287.1127,256 A 31.1127,30.759146 0 0 1 256,286.75915 31.1127,30.759146 0 0 1 224.8873,256 31.1127,30.759146 0 0 1 256,225.24086 31.1127,30.759146 0 0 1 287.1127,256 Z"
     id="path5691" /></svg>