<?xml version="1.0" encoding="UTF-8" standalone="no"?>
<svg
   xmlns:dc="http://purl.org/dc/elements/1.1/"
   xmlns:cc="http://creativecommons.org/ns#"
   xmlns:rdf="http://www.w3.org/1999/02/22-rdf-syntax-ns#"
   xmlns:svg="http://www.w3.org/2000/svg"
   xmlns="http://www.w3.org/2000/svg"
   version="1.1"
   id="Capa_1"
   x="0px"
   y="0px"
   viewBox="0 0 512 512"
   style="enable-background:new 0 0 512 512;"
   xml:space="preserve"
   width="512px"
   height="512px"><metadata
     id="metadata3451"><rdf:RDF><cc:Work
         rdf:about=""><dc:format>image/svg+xml</dc:format><dc:type
           rdf:resource="http://purl.org/dc/dcmitype/StillImage" /><dc:title></dc:title></cc:Work></rdf:RDF></metadata><defs
     id="defs3449" /><g
     id="g3417" /><g
     id="g3419" /><g
     id="g3421" /><g
     id="g3423" /><g
     id="g3425" /><g
     id="g3427" /><g
     id="g3429" /><g
     id="g3431" /><g
     id="g3433" /><g
     id="g3435" /><g
     id="g3437" /><g
     id="g3439" /><g
     id="g3441" /><g
     id="g3443" /><g
     id="g3445" /><path
     style="fill:#ffffff"
     d="m 287.76852,261.97287 c -3.13356,-0.007 -6.23689,0.60994 -9.13225,1.80941 l -10.71879,-10.71925 0,-6.22991 c 9.33742,-5.39103 13.88956,-16.38105 11.09892,-26.79554 -2.79064,-10.41452 -12.22811,-17.65588 -23.0097,-17.65588 -10.78159,0 -20.21948,7.24182 -23.00969,17.65588 -2.79065,10.41449 1.76198,21.40451 11.09888,26.79554 l 0,6.22991 -10.71921,10.71925 c -9.69428,-4.02592 -20.8811,-1.23341 -27.54653,6.87615 -6.66536,8.1091 -7.23856,19.6249 -1.41159,28.35653 5.82697,8.73165 16.68069,12.62126 26.72716,9.5784 10.0465,-3.04282 16.91799,-12.30162 16.92076,-22.79845 -0.007,-0.94311 -0.066,-1.88477 -0.18078,-2.82089 l 8.12076,-8.12073 8.12073,8.12073 c -0.11444,0.93612 -0.17446,1.87778 -0.18078,2.82089 0,13.1563 10.66525,23.82159 23.82159,23.82159 13.15629,0 23.82159,-10.66529 23.82159,-23.82159 0,-13.15629 -10.6653,-23.82204 -23.82159,-23.82204 z m 0,39.70246 c -8.76655,-0.0105 -15.87111,-7.11432 -15.88091,-15.88091 0.003,-1.14548 0.12251,-2.28818 0.355,-3.40989 0.007,-0.12953 0.0105,-0.2587 0.002,-0.38757 0.0316,-0.26819 0.0316,-0.5383 0.003,-0.80677 -0.046,-0.49456 -0.18991,-0.97568 -0.42338,-1.41394 -0.12567,-0.2401 -0.27591,-0.4662 -0.44851,-0.67513 -0.0657,-0.11128 -0.1369,-0.2187 -0.21412,-0.32224 l -12.34722,-12.34722 c -0.74442,-0.74491 -1.75405,-1.1632 -2.80696,-1.1632 -1.05288,0 -2.0625,0.41829 -2.80693,1.1632 l -12.34675,12.34672 c -0.0772,0.10391 -0.14849,0.21132 -0.21448,0.3226 -0.1727,0.2085 -0.32294,0.43457 -0.44806,0.67418 -0.23343,0.43875 -0.37732,0.91889 -0.42337,1.41394 -0.0281,0.26854 -0.0281,0.53922 0.003,0.80769 -0.007,0.12917 -0.007,0.25836 0.002,0.3876 0.23238,1.12174 0.35176,2.26442 0.35499,3.41035 0,8.77075 -7.11015,15.88091 -15.88091,15.88091 -8.77069,0 -15.88182,-7.1097 -15.88182,-15.88091 0,-8.77115 7.11022,-15.88088 15.88091,-15.88088 2.77811,-0.0105 5.50921,0.71512 7.91137,2.1114 0.0874,0.0509 0.18604,0.0509 0.27521,0.0955 0.24466,0.11514 0.50064,0.2036 0.76443,0.26398 0.23343,0.0688 0.47319,0.11548 0.71557,0.13901 0.0881,0.007 0.1706,0.0506 0.25871,0.0506 0.16709,-0.021 0.33207,-0.054 0.49551,-0.0962 0.49601,-0.0316 0.97614,-0.18885 1.39439,-0.45736 0.24116,-0.12566 0.46856,-0.27625 0.67745,-0.44991 0.0744,-0.0639 0.16884,-0.0885 0.2394,-0.15902 l 13.89609,-13.89609 c 0.74443,-0.74442 1.16317,-1.75404 1.16317,-2.80692 l 0,-10.24424 c -0.021,-0.16569 -0.0551,-0.32997 -0.099,-0.49134 -0.0246,-0.33769 -0.0909,-0.67042 -0.20009,-0.99098 -0.26222,-0.43362 -0.53876,-0.85795 -0.82912,-1.27342 -0.24889,-0.22958 -0.5262,-0.42573 -0.82538,-0.58486 -0.12918,-0.10495 -0.26502,-0.20148 -0.40754,-0.28854 -6.90084,-3.00003 -10.74905,-10.43077 -9.21692,-17.79777 1.53209,-7.36703 8.02395,-12.6478 15.54824,-12.6478 7.52475,0 14.0161,5.28077 15.54824,12.6478 1.5321,7.367 -2.31612,14.79774 -9.21692,17.79777 -0.14252,0.0871 -0.27836,0.18323 -0.40758,0.28854 -0.29907,0.15867 -0.57645,0.35546 -0.82537,0.58486 -0.2903,0.41547 -0.5667,0.8398 -0.82913,1.27342 -0.10881,0.32048 -0.17587,0.65369 -0.20009,0.99098 -0.0442,0.16148 -0.0772,0.32541 -0.099,0.49134 l 0,10.24378 c 4.6e-4,1.05288 0.41871,2.06251 1.16314,2.80693 l 13.89608,13.89605 c 0.0716,0.0716 0.1671,0.0962 0.24222,0.16078 0.20781,0.172 0.43271,0.32153 0.67137,0.44573 0.42106,0.26994 0.90355,0.4285 1.40232,0.46059 0.16148,0.0417 0.32506,0.0734 0.49085,0.0955 0.0871,0 0.16884,-0.0442 0.2552,-0.0499 0.24642,-0.0246 0.48993,-0.0709 0.72765,-0.14181 0.2601,-0.0604 0.51274,-0.14778 0.75422,-0.26152 0.0899,-0.0442 0.18955,-0.0442 0.27695,-0.0958 2.40216,-1.3958 5.13326,-2.12439 7.91134,-2.11045 8.77076,0 15.88091,7.11018 15.88091,15.8809 0,8.77073 -7.10924,15.88092 -15.88042,15.88092 z M 365.2144,255.99997 A 109.2144,107.97332 0 0 1 256,363.97331 109.2144,107.97332 0 0 1 146.7856,255.99997 109.2144,107.97332 0 0 1 256,148.02668 109.2144,107.97332 0 0 1 365.2144,255.99997 Z"
     id="path7605" /></svg>