<?xml version="1.0" encoding="UTF-8" standalone="no"?>
<svg
   xmlns:dc="http://purl.org/dc/elements/1.1/"
   xmlns:cc="http://creativecommons.org/ns#"
   xmlns:rdf="http://www.w3.org/1999/02/22-rdf-syntax-ns#"
   xmlns:svg="http://www.w3.org/2000/svg"
   xmlns="http://www.w3.org/2000/svg"
   version="1.1"
   id="Capa_1"
   x="0px"
   y="0px"
   viewBox="0 0 512 512"
   style="enable-background:new 0 0 512 512;"
   xml:space="preserve"
   width="512px"
   height="512px"><metadata
     id="metadata3451"><rdf:RDF><cc:Work
         rdf:about=""><dc:format>image/svg+xml</dc:format><dc:type
           rdf:resource="http://purl.org/dc/dcmitype/StillImage" /><dc:title></dc:title></cc:Work></rdf:RDF></metadata><defs
     id="defs3449" /><g
     id="g3417" /><g
     id="g3419" /><g
     id="g3421" /><g
     id="g3423" /><g
     id="g3425" /><g
     id="g3427" /><g
     id="g3429" /><g
     id="g3431" /><g
     id="g3433" /><g
     id="g3435" /><g
     id="g3437" /><g
     id="g3439" /><g
     id="g3441" /><g
     id="g3443" /><g
     id="g3445" /><path
     style="fill:#ffffff"
     d="m 255.99993,182.44525 c -40.62331,0 -73.55483,32.93153 -73.55483,73.55484 0,40.6233 32.93152,73.55483 73.55483,73.55483 40.62331,0 73.55483,-32.93153 73.55483,-73.55483 -0.0465,-40.6039 -32.95093,-73.50829 -73.55483,-73.55484 z m -11.03318,138.75758 c -31.81399,-5.39891 -55.11043,-32.93409 -55.16601,-65.20274 0.0556,-32.26866 23.35202,-59.80383 55.16601,-65.20275 l 0,24.74754 -22.06641,0 c -2.03126,0 -3.67761,1.64679 -3.67761,3.67757 l 0,14.71122 c 0,2.03126 1.64635,3.6776 3.67761,3.6776 l 37.8693,0 -43.94059,37.66288 c -0.81497,0.69861 -1.28433,1.71875 -1.28392,2.79236 l 0,14.71077 c 0,2.03123 1.64681,3.67761 3.6776,3.67761 l 25.74402,0 0,24.74794 z m 14.71123,-28.42555 0,29.23539 c -1.22487,0.0678 -2.43637,0.18641 -3.67761,0.18641 -1.24124,0 -2.45318,-0.11866 -3.6776,-0.18641 l 0,-29.23539 c 0,-2.03123 -1.64638,-3.6776 -3.67757,-3.6776 l -25.74402,0 0,-9.34159 50.20409,-43.03206 c 1.16884,-1.00161 1.58989,-2.62513 1.05592,-4.06849 -0.53398,-1.44338 -1.91059,-2.40188 -3.4496,-2.40144 l -44.13281,0 0,-7.35561 22.06642,0 c 2.03119,0 3.67757,-1.64678 3.67757,-3.6776 l 0,-29.23539 c 1.22485,-0.0678 2.43636,-0.18606 3.6776,-0.18606 1.24124,0 2.45315,0.11865 3.67761,0.18606 l 0,29.23539 c 0,2.03122 1.64634,3.6776 3.67756,3.6776 l 25.74399,0 0,9.3416 -50.20407,43.03206 c -1.16883,1.00161 -1.58991,2.62513 -1.05594,4.06848 0.534,1.44339 1.91058,2.40188 3.44963,2.40145 l 44.13278,0 0,7.3556 -22.06639,0 c -2.03122,0 -3.67756,1.64679 -3.67756,3.6776 z m 7.35513,28.42555 0,0 0,-24.74755 22.06642,0 c 2.03126,0 3.6776,-1.64634 3.6776,-3.67755 l 0,-14.71123 c 0,-2.03125 -1.64634,-3.67759 -3.6776,-3.67759 l -37.86931,0 43.9406,-37.66289 c 0.81497,-0.69861 1.28432,-1.71875 1.28391,-2.79235 l 0,-14.71078 c 0,-2.03122 -1.64637,-3.67761 -3.6776,-3.67761 l -25.74402,0 0,-24.74754 c 31.84329,5.34764 55.16602,32.91343 55.16602,65.20278 4.3e-4,32.28891 -23.32273,59.85466 -55.16602,65.20231 z m 93.84231,-65.20281 A 104.87542,103.68364 0 0 1 256,359.68364 104.87542,103.68364 0 0 1 151.12458,256.00002 104.87542,103.68364 0 0 1 256,152.31636 104.87542,103.68364 0 0 1 360.87542,256.00002 Z"
     id="path6722" /></svg>