<?xml version="1.0" encoding="iso-8859-1"?>
<!-- Generator: Adobe Illustrator 19.0.0, SVG Export Plug-In . SVG Version: 6.00 Build 0)  -->
<svg version="1.1" id="Layer_1" xmlns="http://www.w3.org/2000/svg" xmlns:xlink="http://www.w3.org/1999/xlink" x="0px" y="0px"
	 viewBox="0 0 512 512" style="enable-background:new 0 0 512 512;" xml:space="preserve">
<polygon style="fill:#D1F4FF;" points="23.273,380.121 488.727,380.121 488.727,38.788 23.273,38.816 "/>
<polygon style="fill:#A7E5FF;" points="488.727,38.788 256,38.802 256,380.121 488.727,380.121 "/>
<path style="fill:#408BAF;" d="M505.184,22.333c-4.366-4.366-10.285-6.817-16.457-6.817L23.273,15.543
	C10.418,15.543,0,25.963,0,38.816v341.305c0,12.851,10.422,23.273,23.273,23.273h147.394v46.545h-23.273
	c-12.851,0-23.273,10.42-23.273,23.273c0,12.851,10.422,23.273,23.273,23.273h46.545h124.121h46.545
	c12.851,0,23.273-10.422,23.273-23.273c0-12.853-10.422-23.273-23.273-23.273h-23.273v-46.545h147.394
	c12.851,0,23.273-10.422,23.273-23.273V38.788C512,32.614,509.549,26.695,505.184,22.333z M465.455,356.848H318.061H193.939H46.545
	V62.087l418.909-0.025V356.848z"/>
<g>
	<path style="fill:#387896;" d="M505.184,22.333c-4.366-4.366-10.285-6.817-16.457-6.817L256,15.529v46.545l209.455-0.012v294.786
		H318.061H256v139.636h62.061h46.545c12.851,0,23.273-10.422,23.273-23.273c0-12.853-10.422-23.273-23.273-23.273h-23.273v-46.545
		h147.394c12.851,0,23.273-10.422,23.273-23.273V38.788C512,32.614,509.549,26.695,505.184,22.333z"/>
	<path style="fill:#387896;" d="M248.27,279.276c-1.269,0-2.557-0.102-3.851-0.32c-12.679-2.112-21.245-14.105-19.13-26.782
		l15.515-93.091c2.112-12.679,14.1-21.243,26.779-19.13c12.682,2.113,21.245,14.105,19.133,26.784l-15.515,93.091
		C269.303,271.209,259.44,279.276,248.27,279.276z"/>
</g>
<path style="fill:#275366;" d="M341.333,279.273c-5.955,0-11.913-2.271-16.454-6.817c-9.09-9.089-9.09-23.822,0-32.914
	l30.087-30.087l-30.089-30.09c-9.09-9.089-9.09-23.822,0-32.914c9.087-9.086,23.823-9.086,32.912,0l46.545,46.545
	c9.087,9.09,9.087,23.824,0,32.914l-46.545,46.545C353.246,277.001,347.291,279.273,341.333,279.273z"/>
<path style="fill:#387896;" d="M170.667,279.273c-5.955,0-11.913-2.271-16.454-6.817l-46.545-46.545
	c-9.09-9.089-9.09-23.822,0-32.914l46.545-46.545c9.087-9.086,23.824-9.086,32.912,0c9.087,9.09,9.087,23.824,0,32.914
	l-30.092,30.09l30.092,30.089c9.087,9.09,9.087,23.824,0,32.914C182.579,277.001,176.624,279.273,170.667,279.273z"/>
<path style="fill:#275366;" d="M267.582,139.953c-4.031-0.672-7.984-0.258-11.582,1.019v136.962
	c7.716-2.738,13.757-9.463,15.2-18.108l15.515-93.091C288.827,154.058,280.264,142.066,267.582,139.953z"/>
<g>
</g>
<g>
</g>
<g>
</g>
<g>
</g>
<g>
</g>
<g>
</g>
<g>
</g>
<g>
</g>
<g>
</g>
<g>
</g>
<g>
</g>
<g>
</g>
<g>
</g>
<g>
</g>
<g>
</g>
</svg>
